<svg xmlns="http://www.w3.org/2000/svg" version="1.1" viewBox="49.152 192.512 479.232 636.928" style="max-height: 500px" width="479.232" height="636.928">
<path transform="translate(387.0390625,237.263916015625)" fill="#020202" d="M0 0 C24.92249352 22.46789367 40.50307801 54.48756998 42.83203125 87.93530273 C42.89583984 89.32168945 42.89583984 89.32168945 42.9609375 90.73608398 C43.04021484 92.35450195 43.04021484 92.35450195 43.12109375 94.00561523 C43.95196418 127.34880698 32.41313727 158.39441996 10.9609375 183.73608398 C10.26097656 184.57139648 9.56101562 185.40670898 8.83984375 186.26733398 C-13.08601034 211.59345421 -46.00719567 227.18818744 -79.2890625 229.61499023 C-87.62889018 229.98222696 -95.76407951 229.85811558 -104.0390625 228.73608398 C-104.45478516 230.50725586 -104.45478516 230.50725586 -104.87890625 232.31420898 C-105.2447768 233.87150414 -105.61066304 235.42879562 -105.9765625 236.98608398 C-106.15896484 237.76338867 -106.34136719 238.54069336 -106.52929688 239.34155273 C-106.70654297 240.0956543 -106.88378906 240.84975586 -107.06640625 241.62670898 C-107.22874756 242.31796875 -107.39108887 243.00922852 -107.55834961 243.72143555 C-108.0376287 245.730075 -108.53452852 247.73365341 -109.0390625 249.73608398 C-108.26224121 249.49595581 -108.26224121 249.49595581 -107.46972656 249.25097656 C-102.39564883 248.17612422 -97.10430807 248.47001519 -91.93212891 248.44091797 C-90.51047801 248.42941908 -89.08886958 248.40899999 -87.66748047 248.37939453 C-72.816265 248.07049753 -72.816265 248.07049753 -66.0390625 252.73608398 C-63.14406456 256.15915146 -61.8165293 259.30147845 -61.6015625 263.79858398 C-62.30131317 270.09634005 -64.99067045 273.9896933 -69.0390625 278.73608398 C-68.2553125 279.31358398 -67.4715625 279.89108398 -66.6640625 280.48608398 C-62.75035326 283.84069191 -62.16304069 285.45497604 -61.6640625 290.61108398 C-61.82856474 295.03619425 -62.91973442 297.46821648 -66.0390625 300.73608398 C-72.7681635 304.18261827 -80.07114361 305.89761582 -87.4140625 307.48608398 C-88.38472656 307.70651367 -89.35539063 307.92694336 -90.35546875 308.15405273 C-94.39612251 309.05135654 -97.87558107 309.73608398 -102.0390625 309.73608398 C-102.0390625 310.39608398 -102.0390625 311.05608398 -102.0390625 311.73608398 C-100.73453125 311.78506836 -99.43 311.83405273 -98.0859375 311.88452148 C-71.75789731 312.9632503 -71.75789731 312.9632503 -66.4140625 317.11108398 C-62.49248816 321.44545562 -61.56397709 324.66792128 -61.734375 330.42358398 C-62.23947372 334.25715374 -63.4890961 336.85056688 -66.0390625 339.73608398 C-71.08653002 343.01679268 -76.68102366 344.68541534 -82.4765625 346.09545898 C-83.24210449 346.2895636 -84.00764648 346.48366821 -84.79638672 346.68365479 C-87.20852412 347.29316476 -89.62361895 347.88982718 -92.0390625 348.48608398 C-93.68901602 348.90059794 -95.33875794 349.3159551 -96.98828125 349.73217773 C-101.00283155 350.74323059 -105.02008413 351.74278585 -109.0390625 352.73608398 C-108.26828369 352.76114014 -107.49750488 352.78619629 -106.70336914 352.81201172 C-103.16930414 352.92893892 -99.63544334 353.05122222 -96.1015625 353.17358398 C-94.28301758 353.23255859 -94.28301758 353.23255859 -92.42773438 353.29272461 C-71.9851185 354.01292517 -71.9851185 354.01292517 -65.0390625 359.73608398 C-61.56145982 363.53971191 -61.56798372 367.41989907 -61.7734375 372.37280273 C-62.15373665 375.75634663 -62.63428992 377.2605828 -65.0390625 379.73608398 C-73.17549509 384.92997178 -82.40336877 386.86965771 -91.6640625 389.04858398 C-93.16042471 389.41010483 -94.65652118 389.77272741 -96.15234375 390.13647461 C-99.77827918 391.01571536 -103.40756735 391.88005679 -107.0390625 392.73608398 C-105.69328125 392.80339722 -105.69328125 392.80339722 -104.3203125 392.87207031 C-100.95747026 393.04642222 -97.59566276 393.2323113 -94.23388672 393.42578125 C-92.78524121 393.5068345 -91.33633824 393.5834252 -89.88720703 393.65527344 C-71.77038514 394.56049024 -71.77038514 394.56049024 -65.1015625 400.23608398 C-61.44056883 404.67365208 -61.51267271 409.21873911 -62.0390625 414.73608398 C-63.84022957 419.13893683 -67.00381709 422.26529228 -71.0390625 424.73608398 C-80.29533132 428.35385532 -90.51657331 430.10454671 -100.1640625 432.42358398 C-101.90110226 432.84325513 -103.63808196 433.26317495 -105.375 433.68334961 C-109.59566695 434.70379702 -113.81713317 435.72087266 -118.0390625 436.73608398 C-109.04539083 437.89469934 -100.1666159 437.77646732 -91.11523438 437.60913086 C-72.43450808 437.42920318 -72.43450808 437.42920318 -66.4765625 442.11108398 C-62.59288614 446.29350468 -61.46885963 449.58855041 -61.58984375 455.22827148 C-62.64196772 461.10186793 -66.34018279 466.07967627 -70.5390625 470.17358398 C-73.01387411 472.71026588 -74.23412558 474.80206151 -75.8515625 477.92358398 C-83.46496186 492.39098993 -95.40783456 503.67535868 -110.99609375 508.94311523 C-123.03558678 512.08049275 -135.85934189 511.24599274 -146.9765625 505.42358398 C-148.3508566 504.55894508 -149.70689748 503.66431945 -151.0390625 502.73608398 C-151.94011719 502.1424707 -151.94011719 502.1424707 -152.859375 501.53686523 C-159.21726357 496.78983184 -165.69200721 487.62597924 -167.0390625 479.73608398 C-161.93772313 478.9025318 -157.01739242 478.55343453 -151.8515625 478.54858398 C-151.15353516 478.53633789 -150.45550781 478.5240918 -149.73632812 478.51147461 C-146.00090068 478.50081211 -143.20876315 478.66390242 -140.0390625 480.73608398 C-140.0390625 481.39608398 -140.0390625 482.05608398 -140.0390625 482.73608398 C-130.93996488 485.85124893 -123.5205896 486.4719009 -114.2890625 483.54858398 C-110.00853578 481.16136716 -105.28880367 478.23556633 -103.0390625 473.73608398 C-106.28725792 472.65335218 -108.53096357 472.65300104 -111.9440918 472.71777344 C-113.15933029 472.73721512 -114.37456879 472.7566568 -115.62663269 472.77668762 C-117.60002373 472.81266304 -117.60002373 472.81266304 -119.61328125 472.84936523 C-122.39253394 472.88416775 -125.17185347 472.91214255 -127.95117188 472.94116211 C-132.33822326 472.98897633 -136.72464171 473.04553879 -141.11108398 473.13378906 C-144.66128097 473.20442012 -148.21075393 473.2450932 -151.7615757 473.26640892 C-153.76029584 473.2864591 -155.75862067 473.33801272 -157.75675964 473.39021301 C-164.74187276 473.41109958 -169.25200262 473.00067911 -174.59202576 468.28709412 C-180.99861722 461.42017223 -183.97026922 452.36972127 -184.06640625 443.09936523 C-183.74763099 437.63114339 -182.7553262 433.95454549 -179.0390625 429.73608398 C-169.4214285 422.66786489 -156.78163997 421.15331089 -145.3515625 418.48608398 C-144.19237305 418.21554199 -143.03318359 417.945 -141.83886719 417.66625977 C-140.19966309 417.29090088 -140.19966309 417.29090088 -138.52734375 416.90795898 C-137.54290283 416.68205078 -136.55846191 416.45614258 -135.54418945 416.22338867 C-133.0390625 415.73608398 -133.0390625 415.73608398 -130.0390625 415.73608398 C-130.0390625 415.07608398 -130.0390625 414.41608398 -130.0390625 413.73608398 C-130.53293457 413.90591797 -131.02680664 414.07575195 -131.53564453 414.25073242 C-135.07313976 414.93656629 -138.51803781 414.69052515 -142.09375 414.50170898 C-142.87291779 414.46301697 -143.65208557 414.42432495 -144.4548645 414.38446045 C-146.10077621 414.30017086 -147.74652023 414.21254966 -149.39208984 414.12182617 C-151.89762665 413.98696862 -154.40356363 413.87280824 -156.91015625 413.75952148 C-158.51308853 413.67485611 -160.11595631 413.58895863 -161.71875 413.50170898 C-162.46269012 413.47030823 -163.20663025 413.43890747 -163.97311401 413.40655518 C-169.34310642 413.07980374 -173.68715726 411.93156798 -177.68359375 408.20092773 C-181.8781004 402.71580366 -182.64847322 399.55458511 -182.0390625 392.73608398 C-180.48596064 387.89406053 -178.48314867 386.09226855 -174.07272339 383.67956543 C-170.59282393 382.06512686 -166.98987791 381.22638732 -163.26171875 380.37670898 C-162.04469521 380.08555206 -162.04469521 380.08555206 -160.80308533 379.78851318 C-158.23822696 379.17737841 -155.67010698 378.58151382 -153.1015625 377.98608398 C-151.35067252 377.57172775 -149.60001859 377.15637273 -147.84960938 376.73999023 C-143.5820685 375.72712346 -139.31153672 374.72792536 -135.0390625 373.73608398 C-139.31476998 373.1760154 -143.53098634 372.63090231 -147.84375 372.48999023 C-148.66987793 372.4586499 -149.49600586 372.42730957 -150.34716797 372.39501953 C-151.19424316 372.3631958 -152.04131836 372.33137207 -152.9140625 372.29858398 C-172.78709789 371.39262339 -172.78709789 371.39262339 -179.0390625 365.73608398 C-181.82408705 361.92677989 -183.41364317 358.38013539 -183.0390625 353.61108398 C-182.19066421 349.52916767 -180.96899809 346.80554032 -178.0390625 343.73608398 C-169.9191637 339.82993458 -160.93543835 338.23322795 -152.1640625 336.48608398 C-150.22660156 336.08389648 -150.22660156 336.08389648 -148.25 335.67358398 C-137.88779342 333.5667453 -137.88779342 333.5667453 -133.0390625 333.73608398 C-133.0390625 333.07608398 -133.0390625 332.41608398 -133.0390625 331.73608398 C-133.97363281 331.75928711 -134.90820312 331.78249023 -135.87109375 331.80639648 C-143.64657042 331.91322345 -151.29734959 331.68727179 -159.0390625 330.92358398 C-159.81483643 330.85349121 -160.59061035 330.78339844 -161.38989258 330.71118164 C-167.41147789 330.06344911 -173.42321942 329.01936258 -178.09765625 324.93920898 C-181.69120438 319.84919747 -183.6876269 315.93701251 -182.6953125 309.50952148 C-181.38766825 304.36497373 -179.30593501 301.06093282 -174.90234375 298.08374023 C-169.48538643 295.53414914 -163.68295911 294.16235053 -157.890625 292.71655273 C-154.27037142 291.94038005 -154.27037142 291.94038005 -152.0390625 290.73608398 C-150.56517644 290.4188091 -149.08474021 290.1316156 -147.6015625 289.86108398 C-142.8080643 288.942736 -138.16456599 287.70015352 -133.484375 286.32202148 C-131.0390625 285.73608398 -131.0390625 285.73608398 -127.0390625 285.73608398 C-126.7090625 285.07608398 -126.3790625 284.41608398 -126.0390625 283.73608398 C-123.71749653 283.32879171 -121.3821838 282.99169722 -119.0390625 282.73608398 C-119.97999756 282.71102783 -120.92093262 282.68597168 -121.89038086 282.66015625 C-130.90504962 282.41681482 -139.91876271 282.15160001 -148.93212891 281.86401367 C-151.35103494 281.78721863 -153.76960867 281.71728525 -156.18896484 281.6550293 C-171.98423549 281.24752372 -171.98423549 281.24752372 -178.0390625 276.73608398 C-181.16684643 272.92351896 -182.93829608 268.67363865 -183.0390625 263.73608398 C-182.25027446 258.64481575 -180.25006602 255.43068595 -176.1640625 252.29858398 C-171.37654882 249.41360017 -166.9613896 248.98781235 -161.4453125 248.84155273 C-157.27466091 248.71241559 -153.17849947 248.24073757 -149.0390625 247.73608398 C-147.83789389 243.4689737 -146.65548287 239.19688963 -145.4765625 234.92358398 C-145.13431641 233.70864258 -144.79207031 232.49370117 -144.43945312 231.24194336 C-144.12041016 230.07856445 -143.80136719 228.91518555 -143.47265625 227.71655273 C-143.17415771 226.64300537 -142.87565918 225.56945801 -142.56811523 224.46337891 C-141.79227414 221.65794443 -141.79227414 221.65794443 -143.0390625 218.73608398 C-145.41972847 217.43944453 -147.76397244 216.29152619 -150.2265625 215.17358398 C-167.25611881 207.04089145 -180.71352843 194.92598455 -193.0390625 180.73608398 C-194.30169922 179.28588867 -194.30169922 179.28588867 -195.58984375 177.80639648 C-207.53216962 162.83563391 -216.17604173 142.47960127 -219.0390625 123.73608398 C-219.22855469 122.52178711 -219.41804687 121.30749023 -219.61328125 120.05639648 C-222.90488111 96.8517847 -221.57664826 72.72894781 -213.0390625 50.73608398 C-212.61947266 49.65399658 -212.61947266 49.65399658 -212.19140625 48.55004883 C-200.60317802 19.38508697 -180.16333572 -2.79528097 -153.0390625 -18.26391602 C-152.03359375 -18.83883789 -151.028125 -19.41375977 -149.9921875 -20.00610352 C-101.33591842 -45.94715305 -40.68109237 -35.49472945 0 0 Z M-163.40625 30.25512695 C-183.16190617 53.07372843 -189.58910085 78.88122001 -188.0390625 108.73608398 C-185.7616397 135.16064925 -171.54071203 158.27852333 -151.91015625 175.45874023 C-137.26323917 187.07663501 -118.00531458 195.9711057 -99.0390625 195.73608398 C-98.3790625 196.06608398 -97.7190625 196.39608398 -97.0390625 196.73608398 C-75.19390095 198.35719695 -53.24812634 193.03466481 -35.0390625 180.73608398 C-34.17023438 180.16374023 -33.30140625 179.59139648 -32.40625 179.00170898 C-11.38082346 164.50554596 2.99232411 142.89406305 7.9609375 117.73608398 C12.54226726 90.62505028 8.08792114 64.06132102 -7.79296875 41.21264648 C-9.48297734 38.99710949 -11.23899592 36.86269325 -13.0390625 34.73608398 C-13.53535156 34.09541992 -14.03164063 33.45475586 -14.54296875 32.79467773 C-29.27167 14.52222881 -53.050468 2.90256828 -76.0390625 -0.26391602 C-109.4354702 -2.61828673 -140.30676978 4.58995447 -163.40625 30.25512695 Z"/>
<path transform="translate(324,778)" fill="#030303" d="M0 0 C0.97324219 0.07476563 1.94648438 0.14953125 2.94921875 0.2265625 C33.7608032 2.74369648 33.7608032 2.74369648 43 11 C43.8125 14.0625 43.8125 14.0625 43 17 C35.68361931 25.88417656 18.75868581 26.57965428 8 28 C7.25218262 28.10054687 6.50436523 28.20109375 5.73388672 28.3046875 C-36.09178554 33.63302793 -114.87259797 42.07375907 -153 20 C-155.625 17.25 -155.625 17.25 -157 15 C-156.09008191 12.05478747 -155.49106943 10.36705177 -152.98632812 8.49487305 C-146.88442158 5.58530245 -141.17277327 3.84238709 -134.5 2.8125 C-133.01838379 2.57116333 -133.01838379 2.57116333 -131.50683594 2.32495117 C-119.7297625 0.50635107 -107.8916529 -0.35545169 -96 -1 C-94.93861816 -1.05784668 -93.87723633 -1.11569336 -92.78369141 -1.17529297 C-61.80818641 -2.76729315 -30.91730094 -2.38087026 0 0 Z"/>
<path transform="translate(294,256)" fill="#060606" d="M0 0 C1 2.8125 1 2.8125 1 6 C-2.94132763 11.17844455 -6.89630879 12.10652419 -12.9375 13.375 C-31.36182761 17.79740244 -45.10875139 26.69357238 -55.11474609 42.86401367 C-61.66525881 53.97173736 -64.03099108 65.03784572 -65.33984375 77.70703125 C-66 81 -66 81 -67.34765625 82.921875 C-70.22274793 84.79782135 -72.69662931 84.41292134 -76 84 C-78.00928742 81.95367502 -78.90069481 80.56565017 -79.3984375 77.73046875 C-79.17727324 53.73414618 -69.39574092 33.18669239 -52.52441406 16.45117188 C-41.88338017 6.32139842 -14.52272436 -9.68181624 0 0 Z"/>
<path transform="translate(213,233)" fill="#171717" d="M0 0 C0.66 0.33 1.32 0.66 2 1 C-4.27 7.27 -10.54 13.54 -17 20 C-17 14.49046452 -11.69518349 10.76920103 -8 7 C-5.39894309 4.58259735 -2.74176609 2.25616719 0 0 Z"/>
<path transform="translate(172,786)" fill="#2A2A2A" d="M0 0 C0.66 0.33 1.32 0.66 2 1 C1.38125 1.5775 0.7625 2.155 0.125 2.75 C-1.81347053 4.80249821 -2.90014249 6.43366582 -4 9 C-4.8125 7.3125 -4.8125 7.3125 -5 5 C-2.5625 2.25 -2.5625 2.25 0 0 Z"/>
<path transform="translate(212,489)" fill="#202021" d="M0 0 C0.66 0.33 1.32 0.66 2 1 C-0.31 3.31 -2.62 5.62 -5 8 C-5.33 7.34 -5.66 6.68 -6 6 C-4 4 -2 2 0 0 Z"/>
<path transform="translate(249,652)" fill="#2C2C2B" d="M0 0 C1.32 0.33 2.64 0.66 4 1 C2.68 1.33 1.36 1.66 0 2 C0 1.34 0 0.68 0 0 Z"/>
<path transform="translate(296,432)" fill="#303234" d="M0 0 C1.65 0 3.3 0 5 0 C5 0.33 5 0.66 5 1 C3.35 1 1.7 1 0 1 C0 0.67 0 0.34 0 0 Z"/>
<path transform="translate(243,570)" fill="#2C2C2C" d="M0 0 C4 1 4 1 4 1 Z"/>
<path transform="translate(237,711)" fill="#202020" d="M0 0 C3 1 3 1 3 1 Z"/>
<path transform="translate(287,548)" fill="#2E2D2D" d="M0 0 C3 1 3 1 3 1 Z"/>
<path transform="translate(224,776)" fill="#302F30" d="M0 0 C2 1 2 1 2 1 Z"/>
<path transform="translate(0,0)" fill="#303333" d=""/>
<path transform="translate(0,0)" fill="#323332" d=""/>
<path transform="translate(241,612)" fill="#2D2C2B" d="M0 0 C2 1 2 1 2 1 Z"/>
<path transform="translate(0,0)" fill="#28292C" d=""/>
<path transform="translate(216,576)" fill="#2E2E2E" d="M0 0 C2 1 2 1 2 1 Z"/>
<path transform="translate(220,519)" fill="#2C2C2B" d="M0 0 C2 1 2 1 2 1 Z"/>
<path transform="translate(318,515)" fill="#2B2C2C" d="M0 0 C2 1 2 1 2 1 Z"/>
<path transform="translate(285,467)" fill="#262626" d="M0 0 C2 1 2 1 2 1 Z"/>
<path transform="translate(0,0)" fill="#272828" d=""/>
<path transform="translate(0,0)" fill="#343433" d=""/>
<path transform="translate(276,203)" fill="#2D2C2C" d="M0 0 C2 1 2 1 2 1 Z"/>
<path transform="translate(0,0)" fill="#272726" d=""/>
<path transform="translate(0,0)" fill="#343335" d=""/>
<path transform="translate(0,0)" fill="#3B3A3A" d=""/>
<path transform="translate(0,0)" fill="#3E3C3A" d=""/>
<path transform="translate(0,0)" fill="#313330" d=""/>
<path transform="translate(0,0)" fill="#353437" d=""/>
<path transform="translate(0,0)" fill="#313234" d=""/>
<path transform="translate(0,0)" fill="#2F3131" d=""/>
<path transform="translate(0,0)" fill="#343634" d=""/>
<path transform="translate(0,0)" fill="#272927" d=""/>
<path transform="translate(0,0)" fill="#282929" d=""/>
<path transform="translate(0,0)" fill="#292A29" d=""/>
<path transform="translate(0,0)" fill="#272827" d=""/>
<path transform="translate(0,0)" fill="#282A2A" d=""/>
<path transform="translate(0,0)" fill="#292929" d=""/>
<path transform="translate(0,0)" fill="#292829" d=""/>
<path transform="translate(0,0)" fill="#2A2929" d=""/>
<path transform="translate(0,0)" fill="#2C2B2A" d=""/>
<path transform="translate(0,0)" fill="#2E2F2F" d=""/>
<path transform="translate(0,0)" fill="#242324" d=""/>
<path transform="translate(0,0)" fill="#232324" d=""/>
<path transform="translate(0,0)" fill="#313333" d=""/>
<path transform="translate(0,0)" fill="#2E2F2E" d=""/>
<path transform="translate(0,0)" fill="#353435" d=""/>
<path transform="translate(0,0)" fill="#313032" d=""/>
<path transform="translate(0,0)" fill="#2A282B" d=""/>
<path transform="translate(0,0)" fill="#2D2D2C" d=""/>
<path transform="translate(0,0)" fill="#2E2E2E" d=""/>
<path transform="translate(0,0)" fill="#2A2C29" d=""/>
<path transform="translate(0,0)" fill="#2A2A2A" d=""/>
<path transform="translate(0,0)" fill="#29282A" d=""/>
<path transform="translate(0,0)" fill="#2C2E2D" d=""/>
<path transform="translate(0,0)" fill="#333433" d=""/>
<path transform="translate(0,0)" fill="#323230" d=""/>
<path transform="translate(0,0)" fill="#292A2B" d=""/>
<path transform="translate(0,0)" fill="#303032" d=""/>
<path transform="translate(0,0)" fill="#2B2D2B" d=""/>
<path transform="translate(0,0)" fill="#2D2C2C" d=""/>
<path transform="translate(0,0)" fill="#2E2C2D" d=""/>
<path transform="translate(0,0)" fill="#333435" d=""/>
<path transform="translate(0,0)" fill="#333432" d=""/>
<path transform="translate(0,0)" fill="#2D2F30" d=""/>
<path transform="translate(0,0)" fill="#29292A" d=""/>
<path transform="translate(0,0)" fill="#2C2A29" d=""/>
<path transform="translate(0,0)" fill="#2E2D2D" d=""/>
<path transform="translate(0,0)" fill="#323432" d=""/>
<path transform="translate(0,0)" fill="#2C2B2B" d=""/>
<path transform="translate(0,0)" fill="#272A29" d=""/>
<path transform="translate(0,0)" fill="#2B2A29" d=""/>
<path transform="translate(0,0)" fill="#2C2E30" d=""/>
<path transform="translate(0,0)" fill="#2E2D2C" d=""/>
<path transform="translate(0,0)" fill="#2C2C2A" d=""/>
<path transform="translate(0,0)" fill="#282928" d=""/>
<path transform="translate(0,0)" fill="#2B2A28" d=""/>
<path transform="translate(0,0)" fill="#282B28" d=""/>
<path transform="translate(0,0)" fill="#292A2A" d=""/>
<path transform="translate(0,0)" fill="#353536" d=""/>
<path transform="translate(0,0)" fill="#353639" d=""/>
<path transform="translate(0,0)" fill="#2B2B2C" d=""/>
<path transform="translate(0,0)" fill="#292928" d=""/>
<path transform="translate(0,0)" fill="#292828" d=""/>
<path transform="translate(0,0)" fill="#282727" d=""/>
<path transform="translate(0,0)" fill="#2E2E2D" d=""/>
<path transform="translate(0,0)" fill="#2E2E2E" d=""/>
<path transform="translate(0,0)" fill="#2D2E2C" d=""/>
<path transform="translate(0,0)" fill="#2C2D2C" d=""/>
<path transform="translate(0,0)" fill="#2E312E" d=""/>
<path transform="translate(0,0)" fill="#2D2E31" d=""/>
<path transform="translate(0,0)" fill="#30302F" d=""/>
<path transform="translate(0,0)" fill="#363636" d=""/>
<path transform="translate(0,0)" fill="#323133" d=""/>
<path transform="translate(0,0)" fill="#363635" d=""/>
<path transform="translate(0,0)" fill="#353735" d=""/>
<path transform="translate(0,0)" fill="#333232" d=""/>
<path transform="translate(0,0)" fill="#323232" d=""/>
<path transform="translate(0,0)" fill="#2B2E2A" d=""/>
<path transform="translate(0,0)" fill="#313331" d=""/>
<path transform="translate(0,0)" fill="#323233" d=""/>
<path transform="translate(0,0)" fill="#313535" d=""/>
<path transform="translate(0,0)" fill="#2D2D2D" d=""/>
<path transform="translate(0,0)" fill="#323135" d=""/>
<path transform="translate(0,0)" fill="#292C29" d=""/>
<path transform="translate(0,0)" fill="#333433" d=""/>
<path transform="translate(0,0)" fill="#333431" d=""/>
<path transform="translate(0,0)" fill="#272827" d=""/>
<path transform="translate(0,0)" fill="#292927" d=""/>
<path transform="translate(0,0)" fill="#282829" d=""/>
<path transform="translate(0,0)" fill="#2F2D2C" d=""/>
<path transform="translate(0,0)" fill="#2B2A2A" d=""/>
<path transform="translate(0,0)" fill="#383A37" d=""/>
<path transform="translate(0,0)" fill="#2C2C2A" d=""/>
<path transform="translate(0,0)" fill="#2C2C2B" d=""/>
<path transform="translate(0,0)" fill="#2F2F2E" d=""/>
<path transform="translate(0,0)" fill="#2C2C2E" d=""/>
<path transform="translate(0,0)" fill="#363437" d=""/>
<path transform="translate(0,0)" fill="#2A2929" d=""/>
<path transform="translate(0,0)" fill="#272827" d=""/>
<path transform="translate(0,0)" fill="#373638" d=""/>
<path transform="translate(0,0)" fill="#272728" d=""/>
<path transform="translate(0,0)" fill="#494949" d=""/>
<path transform="translate(0,0)" fill="#282927" d=""/>
<path transform="translate(0,0)" fill="#343132" d=""/>
<path transform="translate(0,0)" fill="#3A3B3A" d=""/>
<path transform="translate(0,0)" fill="#2E2D2F" d=""/>
<path transform="translate(0,0)" fill="#3B393C" d=""/>
<path transform="translate(0,0)" fill="#373836" d=""/>
<path transform="translate(0,0)" fill="#363638" d=""/>
<path transform="translate(0,0)" fill="#2C2D2D" d=""/>
<path transform="translate(0,0)" fill="#38393C" d=""/>
<path transform="translate(0,0)" fill="#393939" d=""/>
<path transform="translate(0,0)" fill="#353534" d=""/>
<path transform="translate(0,0)" fill="#2C2F2C" d=""/>
<path transform="translate(0,0)" fill="#242727" d=""/>
<path transform="translate(0,0)" fill="#353838" d=""/>
<path transform="translate(0,0)" fill="#302F2E" d=""/>
<path transform="translate(0,0)" fill="#2C2B2B" d=""/>
<path transform="translate(0,0)" fill="#2F2E2F" d=""/>
<path transform="translate(0,0)" fill="#373434" d=""/>
<path transform="translate(0,0)" fill="#333233" d=""/>
<path transform="translate(0,0)" fill="#3A3B3C" d=""/>
<path transform="translate(0,0)" fill="#3C3B3B" d=""/>
<path transform="translate(0,0)" fill="#28282B" d=""/>
<path transform="translate(0,0)" fill="#272727" d=""/>
<path transform="translate(0,0)" fill="#343230" d=""/>
<path transform="translate(0,0)" fill="#333331" d=""/>
<path transform="translate(0,0)" fill="#303031" d=""/>
<path transform="translate(0,0)" fill="#2C2C2A" d=""/>
<path transform="translate(0,0)" fill="#2D2C2A" d=""/>
<path transform="translate(0,0)" fill="#2D2E2E" d=""/>
<path transform="translate(0,0)" fill="#2F2D2E" d=""/>
<path transform="translate(0,0)" fill="#2B2A2A" d=""/>
<path transform="translate(0,0)" fill="#303030" d=""/>
<path transform="translate(0,0)" fill="#2F2F2F" d=""/>
<path transform="translate(0,0)" fill="#303130" d=""/>
<path transform="translate(0,0)" fill="#2F2E2E" d=""/>
<path transform="translate(0,0)" fill="#2C2E2E" d=""/>
<path transform="translate(0,0)" fill="#332F30" d=""/>
<path transform="translate(0,0)" fill="#322E32" d=""/>
<path transform="translate(0,0)" fill="#292B2B" d=""/>
<path transform="translate(0,0)" fill="#2A2B2C" d=""/>
<path transform="translate(0,0)" fill="#2B2B2D" d=""/>
<path transform="translate(0,0)" fill="#2F2D2D" d=""/>
<path transform="translate(0,0)" fill="#2D2D2C" d=""/>
<path transform="translate(0,0)" fill="#2A2C28" d=""/>
<path transform="translate(0,0)" fill="#2C2B2A" d=""/>
<path transform="translate(0,0)" fill="#2D2D2B" d=""/>
<path transform="translate(0,0)" fill="#2F312E" d=""/>
<path transform="translate(0,0)" fill="#302F2F" d=""/>
<path transform="translate(0,0)" fill="#2F302E" d=""/>
<path transform="translate(0,0)" fill="#3C3B3C" d=""/>
</svg>